# xmcd CD database file generated by Grip 3.0.7
# 
# Track frame offsets:
#       150
#       15820
#       28032
#       51435
#       64755
#       85605
#       100880
#       112377
#       132595
#       150875
#       163315
#       179165
# 
# Disc length: 2568 seconds
# 
# Revision: 1
# Processed by: cddbd v1.5.1PL0 Copyright (c) Steve Scherf et al.
# Submitted via: Grip 3.0.7
# 
DISCID=9f0a060c
DTITLE=Tarbox Ramblers - Tarbox Ramblers
DYEAR=2000
DGENRE=Blues
TTITLE0=Jack of Diamonds
TTITLE1=Honey In the Rock
TTITLE2=Third Jinx Blues
TTITLE3=Columbus Stockade
TTITLE4=The Cuckoo
TTITLE5=Oh Death
TTITLE6=No Harm Blues
TTITLE7=St. James Infirmary
TTITLE8=Down South Blues
TTITLE9=Stewball
TTITLE10=Shake 'Em On Down
TTITLE11=Jug Band Music
EXTD=
EXTT0=
EXTT1=
EXTT2=
EXTT3=
EXTT4=
EXTT5=
EXTT6=
EXTT7=
EXTT8=
EXTT9=
EXTT10=
EXTT11=
PLAYORDER=
